HIERARCHY
ROOT Hips
{
	OFFSET 0.000000 71.427986 0.000000
	CHANNELS 6 Xposition Yposition Zposition Xrotation Yrotation Zrotation
	JOINT Pelvis
	{
		OFFSET 0.000000 0.000000 0.000000
		CHANNELS 3 Xrotation Yrotation Zrotation
		JOINT LeftUpLeg
		{
			OFFSET 6.797100 -2.508499 -1.318700
			CHANNELS 3 Xrotation Yrotation Zrotation
			JOINT LeftLeg
			{
				OFFSET 0.069008 -29.241863 0.690200
				CHANNELS 3 Xrotation Yrotation Zrotation
				JOINT LeftFoot
				{
					OFFSET -0.069008 -29.568123 -0.266800
					CHANNELS 3 Xrotation Yrotation Zrotation
					JOINT LeftToeBase
					{
						OFFSET 3.145500 -8.631000 16.059900
						CHANNELS 3 Xrotation Yrotation Zrotation
						End Site
						{
							OFFSET 0.000000 18.501587 0.000000
						}
					}
				}
			}
			JOINT Left_ShortSleeve
			{
				OFFSET 0.265923 -10.480953 1.153800
				CHANNELS 3 Xrotation Yrotation Zrotation
				End Site
				{
					OFFSET 1.725763 19.823879 0.000000
				}
			}
		}
		JOINT RightUpLeg
		{
			OFFSET -6.797100 -2.508499 -1.318700
			CHANNELS 3 Xrotation Yrotation Zrotation
			JOINT RightLeg
			{
				OFFSET -0.082453 -29.241932 0.688000
				CHANNELS 3 Xrotation Yrotation Zrotation
				JOINT RightFoot
				{
					OFFSET 0.082453 -29.568058 -0.264600
					CHANNELS 3 Xrotation Yrotation Zrotation
					JOINT RightToeBase
					{
						OFFSET -3.115300 -8.682800 16.113400
						CHANNELS 3 Xrotation Yrotation Zrotation
						End Site
						{
							OFFSET 0.000000 18.567114 0.000000
						}
					}
				}
			}
			JOINT Right_ShortSleeve
			{
				OFFSET -0.265923 -10.480953 1.153800
				CHANNELS 3 Xrotation Yrotation Zrotation
				End Site
				{
					OFFSET -1.725766 19.823910 0.000000
				}
			}
		}
	}
	JOINT Spine
	{
		OFFSET 0.000000 13.368103 0.470500
		CHANNELS 3 Xrotation Yrotation Zrotation
		JOINT Spine1
		{
			OFFSET 0.147000 13.837402 0.538800
			CHANNELS 3 Xrotation Yrotation Zrotation
			JOINT Spine2
			{
				OFFSET 0.168000 16.242897 -1.435500
				CHANNELS 3 Xrotation Yrotation Zrotation
				JOINT Neck
				{
					OFFSET 0.217200 18.631500 -1.679100
					CHANNELS 3 Xrotation Yrotation Zrotation
					JOINT Head
					{
						OFFSET 0.000000 6.599396 1.385900
						CHANNELS 3 Xrotation Yrotation Zrotation
						JOINT Hat
						{
							OFFSET -0.532200 27.220596 -10.096100
							CHANNELS 3 Xrotation Yrotation Zrotation
							End Site
							{
								OFFSET 0.000000 22.029861 0.000000
							}
						}
						JOINT HairD
						{
							OFFSET -10.777400 17.437393 -1.325900
							CHANNELS 3 Xrotation Yrotation Zrotation
							JOINT HairD1
							{
								OFFSET -3.290299 -11.051193 1.062200
								CHANNELS 3 Xrotation Yrotation Zrotation
								End Site
								{
									OFFSET 0.000000 11.579437 0.000000
								}
							}
						}
						JOINT HairB
						{
							OFFSET -10.777400 17.437393 1.467900
							CHANNELS 3 Xrotation Yrotation Zrotation
							JOINT HairB1
							{
								OFFSET -1.561200 -12.956299 3.590200
								CHANNELS 3 Xrotation Yrotation Zrotation
								End Site
								{
									OFFSET 0.000000 13.534866 0.000000
								}
							}
						}
						JOINT HairA
						{
							OFFSET 9.713100 17.437393 1.467900
							CHANNELS 3 Xrotation Yrotation Zrotation
							JOINT HairA1
							{
								OFFSET 1.561200 -12.956299 3.590200
								CHANNELS 3 Xrotation Yrotation Zrotation
								End Site
								{
									OFFSET 0.000000 13.534866 0.000000
								}
							}
						}
						JOINT HairC
						{
							OFFSET 9.713100 17.437393 -1.325900
							CHANNELS 3 Xrotation Yrotation Zrotation
							JOINT HairC1
							{
								OFFSET 3.290300 -11.051193 1.062200
								CHANNELS 3 Xrotation Yrotation Zrotation
								End Site
								{
									OFFSET 0.000000 11.579437 0.000000
								}
							}
						}
					}
				}
				JOINT LeftShoulder
				{
					OFFSET 5.101800 15.108002 -2.763700
					CHANNELS 3 Xrotation Yrotation Zrotation
					JOINT LeftArm
					{
						OFFSET 9.825497 2.506317 -1.597400
						CHANNELS 3 Xrotation Yrotation Zrotation
						JOINT LeftForeArm
						{
							OFFSET 21.966244 0.000000 0.000000
							CHANNELS 3 Xrotation Yrotation Zrotation
							JOINT LeftHand
							{
								OFFSET 33.879036 0.000000 0.000000
								CHANNELS 3 Xrotation Yrotation Zrotation
								JOINT LeftHandThumb1
								{
									OFFSET 6.715286 -2.359680 3.363841
									CHANNELS 3 Xrotation Yrotation Zrotation
									JOINT LeftHandThumb2
									{
										OFFSET 2.507072 -1.447464 1.447461
										CHANNELS 3 Xrotation Yrotation Zrotation
										JOINT LeftHandThumb3
										{
											OFFSET 2.898338 -1.673355 1.673357
											CHANNELS 3 Xrotation Yrotation Zrotation
											End Site
											{
												OFFSET -0.295959 3.727692 -0.131651
											}
										}
									}
								}
								JOINT LeftHandIndex1
								{
									OFFSET 14.190811 -0.254547 3.840278
									CHANNELS 3 Xrotation Yrotation Zrotation
									JOINT LeftHandIndex2
									{
										OFFSET 3.551727 0.000000 -0.000000
										CHANNELS 3 Xrotation Yrotation Zrotation
										JOINT LeftHandIndex3
										{
											OFFSET 2.894196 0.000000 0.000000
											CHANNELS 3 Xrotation Yrotation Zrotation
											End Site
											{
												OFFSET -1.000603 2.690872 0.366626
											}
										}
									}
								}
								JOINT LeftHandMiddle1
								{
									OFFSET 13.776489 0.000000 0.000000
									CHANNELS 3 Xrotation Yrotation Zrotation
									JOINT LeftHandMiddle2
									{
										OFFSET 3.438232 0.000000 0.000000
										CHANNELS 3 Xrotation Yrotation Zrotation
										JOINT LeftHandMiddle3
										{
											OFFSET 3.691551 0.000000 0.000000
											CHANNELS 3 Xrotation Yrotation Zrotation
											End Site
											{
												OFFSET -1.082298 3.499527 0.457670
											}
										}
									}
								}
								JOINT LeftHandRing1
								{
									OFFSET 13.966164 -0.268127 -3.067488
									CHANNELS 3 Xrotation Yrotation Zrotation
									JOINT LeftHandRing2
									{
										OFFSET 3.162567 0.000000 0.000000
										CHANNELS 3 Xrotation Yrotation Zrotation
										JOINT LeftHandRing3
										{
											OFFSET 3.324348 0.000000 0.000000
											CHANNELS 3 Xrotation Yrotation Zrotation
											End Site
											{
												OFFSET -0.861900 3.184998 0.405154
											}
										}
									}
								}
								JOINT LeftHandPinky1
								{
									OFFSET 13.131393 -0.168503 -5.746925
									CHANNELS 3 Xrotation Yrotation Zrotation
									JOINT LeftHandPinky2
									{
										OFFSET 2.849182 0.000000 0.000000
										CHANNELS 3 Xrotation Yrotation Zrotation
										JOINT LeftHandPinky3
										{
											OFFSET 2.805038 0.000000 0.000000
											CHANNELS 3 Xrotation Yrotation Zrotation
											End Site
											{
												OFFSET -0.882500 2.642609 0.325652
											}
										}
									}
								}
							}
							JOINT Left_Sleeve
							{
								OFFSET 6.592125 -0.646545 0.805568
								CHANNELS 3 Xrotation Yrotation Zrotation
								End Site
								{
									OFFSET -0.000179 20.275787 -0.000000
								}
							}
						}
					}
				}
				JOINT RightShoulder
				{
					OFFSET -5.731700 15.108002 -2.763700
					CHANNELS 3 Xrotation Yrotation Zrotation
					JOINT RightArm
					{
						OFFSET -9.825497 2.506317 -1.597400
						CHANNELS 3 Xrotation Yrotation Zrotation
						JOINT RightForeArm
						{
							OFFSET -21.966242 0.000000 0.000000
							CHANNELS 3 Xrotation Yrotation Zrotation
							JOINT RightHand
							{
								OFFSET -33.879032 0.000000 0.000000
								CHANNELS 3 Xrotation Yrotation Zrotation
								JOINT RightHandThumb1
								{
									OFFSET -6.715286 -2.359680 3.363841
									CHANNELS 3 Xrotation Yrotation Zrotation
									JOINT RightHandThumb2
									{
										OFFSET -2.507072 -1.447464 1.447461
										CHANNELS 3 Xrotation Yrotation Zrotation
										JOINT RightHandThumb3
										{
											OFFSET -2.898338 -1.673355 1.673357
											CHANNELS 3 Xrotation Yrotation Zrotation
											End Site
											{
												OFFSET 0.295959 3.727692 -0.131651
											}
										}
									}
								}
								JOINT RightHandIndex1
								{
									OFFSET -14.190811 -0.254547 3.840278
									CHANNELS 3 Xrotation Yrotation Zrotation
									JOINT RightHandIndex2
									{
										OFFSET -3.551727 0.000000 -0.000000
										CHANNELS 3 Xrotation Yrotation Zrotation
										JOINT RightHandIndex3
										{
											OFFSET -2.894196 0.000000 0.000000
											CHANNELS 3 Xrotation Yrotation Zrotation
											End Site
											{
												OFFSET 1.000603 2.690872 0.366626
											}
										}
									}
								}
								JOINT RightHandMiddle1
								{
									OFFSET -13.776489 0.000000 0.000000
									CHANNELS 3 Xrotation Yrotation Zrotation
									JOINT RightHandMiddle2
									{
										OFFSET -3.438232 0.000000 0.000000
										CHANNELS 3 Xrotation Yrotation Zrotation
										JOINT RightHandMiddle3
										{
											OFFSET -3.691551 0.000000 0.000000
											CHANNELS 3 Xrotation Yrotation Zrotation
											End Site
											{
												OFFSET 1.082298 3.499527 0.457670
											}
										}
									}
								}
								JOINT RightHandRing1
								{
									OFFSET -13.966164 -0.268127 -3.067488
									CHANNELS 3 Xrotation Yrotation Zrotation
									JOINT RightHandRing2
									{
										OFFSET -3.162567 0.000000 0.000000
										CHANNELS 3 Xrotation Yrotation Zrotation
										JOINT RightHandRing3
										{
											OFFSET -3.324348 0.000000 0.000000
											CHANNELS 3 Xrotation Yrotation Zrotation
											End Site
											{
												OFFSET 0.861900 3.184998 0.405154
											}
										}
									}
								}
								JOINT RightHandPinky1
								{
									OFFSET -13.131393 -0.168503 -5.746925
									CHANNELS 3 Xrotation Yrotation Zrotation
									JOINT RightHandPinky2
									{
										OFFSET -2.849182 0.000000 0.000000
										CHANNELS 3 Xrotation Yrotation Zrotation
										JOINT RightHandPinky3
										{
											OFFSET -2.805038 0.000000 0.000000
											CHANNELS 3 Xrotation Yrotation Zrotation
											End Site
											{
												OFFSET 0.882500 2.642609 0.325652
											}
										}
									}
								}
							}
							JOINT Right_Sleeve
							{
								OFFSET -6.592125 -0.646545 0.805568
								CHANNELS 3 Xrotation Yrotation Zrotation
								End Site
								{
									OFFSET 0.000179 20.275787 -0.000000
								}
							}
						}
					}
				}
				JOINT Bind_Right_JacketString
				{
					OFFSET -3.534800 11.969597 7.200700
					CHANNELS 3 Xrotation Yrotation Zrotation
					JOINT Bind_Right_JacketString1
					{
						OFFSET -0.319900 -6.102600 2.794100
						CHANNELS 3 Xrotation Yrotation Zrotation
						End Site
						{
							OFFSET 0.000000 6.719452 0.000000
						}
					}
				}
				JOINT Bind_Left_JacketString
				{
					OFFSET 2.904800 11.969597 7.200700
					CHANNELS 3 Xrotation Yrotation Zrotation
					JOINT Bind_Left_JacketString1
					{
						OFFSET 0.364800 -5.904503 3.186800
						CHANNELS 3 Xrotation Yrotation Zrotation
						End Site
						{
							OFFSET 0.000000 6.719513 0.000000
						}
					}
				}
				JOINT HairE
				{
					OFFSET 5.915200 17.612701 -11.592200
					CHANNELS 3 Xrotation Yrotation Zrotation
					JOINT HairE1
					{
						OFFSET 0.289200 -7.171898 -1.284500
						CHANNELS 3 Xrotation Yrotation Zrotation
						End Site
						{
							OFFSET 0.000000 7.291756 0.000000
						}
					}
				}
				JOINT HairF
				{
					OFFSET -0.864800 17.612701 -11.592200
					CHANNELS 3 Xrotation Yrotation Zrotation
					JOINT HairF1
					{
						OFFSET 0.000000 -14.087097 -2.127501
						CHANNELS 3 Xrotation Yrotation Zrotation
						End Site
						{
							OFFSET 0.000000 14.246841 0.000000
						}
					}
				}
				JOINT HairG
				{
					OFFSET -8.087700 17.612701 -11.592200
					CHANNELS 3 Xrotation Yrotation Zrotation
					JOINT HairG1
					{
						OFFSET -0.293600 -6.081398 -0.910100
						CHANNELS 3 Xrotation Yrotation Zrotation
						End Site
						{
							OFFSET 0.000000 6.156120 0.000000
						}
					}
				}
			}
		}
	}
	JOINT Pouch
	{
		OFFSET 0.000000 4.394501 10.847300
		CHANNELS 3 Xrotation Yrotation Zrotation
		End Site
		{
			OFFSET 0.000000 21.880577 0.000000
		}
	}
	JOINT Bag
	{
		OFFSET -13.229000 4.813004 -0.593300
		CHANNELS 3 Xrotation Yrotation Zrotation
		End Site
		{
			OFFSET 0.000000 21.880577 0.000000
		}
	}
	JOINT OccupyGuyFacialAnim_Joint
	{
		OFFSET 1.000000 -70.206398 -1.655000
		CHANNELS 3 Xrotation Yrotation Zrotation
		End Site
		{
			OFFSET 0.000000 21.880577 0.000000
		}
	}
}
MOTION
Frames: 4
Frame Time: 0.016667
0.894131 61.622620 20.474104 5.585960 -411.942779 8.037819 0.000000 -0.000001 -0.000000 -3.295746 14.568886 -7.355789 50.480033 -8.960990 -8.198090 -37.546011 -10.431174 18.204047 -0.000000 -0.000000 -0.000000 0.000000 0.000005 0.000001 -56.541897 -1.106146 -0.887417 33.323011 14.360369 3.505723 -16.782098 2.027846 8.783198 -0.000001 0.000001 0.000001 -0.000000 0.000001 0.000000 11.642248 -5.933775 4.470058 7.182701 -7.370593 1.871819 -3.934137 -6.959425 2.025282 7.764874 41.421535 -11.305581 0.258113 26.018796 -6.977974 0.000000 -0.000000 0.000001 0.000000 -0.000000 0.000001 0.000000 -0.000000 0.000001 0.000000 -0.000000 0.000001 -0.000001 0.000000 0.000001 0.000000 -0.000000 0.000001 -0.000001 0.000000 0.000001 0.000000 -0.000000 0.000001 0.000000 -0.000000 0.000001 1.383209 -5.637197 -0.733878 -2.266016 -2.878862 -36.679465 -0.000821 -20.848227 -3.050623 -46.535523 -14.688327 25.139491 20.995612 -10.306003 6.187768 3.717734 17.385548 -9.270255 -0.000001 0.000001 -0.000001 12.155543 -5.008989 -19.357557 -1.752632 1.408441 -24.867493 0.000002 0.000001 -0.000002 2.495171 2.549572 -39.192001 -1.398713 0.248723 -47.542932 0.000000 0.000000 0.000001 0.949983 6.178058 -48.371687 -2.316277 1.003929 -53.554605 -0.000002 -0.000000 0.000003 -1.286404 4.834443 -53.465276 -2.521696 1.318790 -48.312206 0.000001 0.000002 0.000003 -0.000000 -0.000000 -0.000003 9.987216 -5.269199 3.687170 4.872906 -1.636430 76.375503 -10.545832 13.289829 4.346979 -27.527570 -8.499061 -15.910811 55.149533 18.649516 -29.698274 -0.442536 -14.180535 7.313159 -0.000001 0.000000 -0.000003 5.673389 7.585009 36.844165 1.050465 3.824540 68.900216 -0.000002 0.000001 0.000000 -0.125722 1.886069 45.000776 -1.168993 3.204686 68.417650 0.000001 -0.000001 -0.000001 -5.312009 1.216668 58.508780 -0.745225 1.667564 48.011292 0.000001 -0.000004 -0.000003 -7.756836 -9.376448 47.264001 -0.526023 1.541567 45.600532 0.000001 0.000001 -0.000005 -0.000000 0.000001 0.000001 0.000002 0.000001 -0.000000 0.000002 0.000002 -0.000000 0.000002 0.000001 0.000000 0.000002 0.000001 0.000000 0.000002 0.000001 -0.000000 0.000002 0.000002 -0.000000 0.000002 0.000001 0.000000 0.000002 0.000001 0.000000 0.000002 0.000001 -0.000000 0.000002 0.000002 -0.000000 0.000000 -0.000001 -0.000000 0.000000 -0.000001 -0.000000 0.000000 -0.000001 -0.000000 
1.720769 61.912041 19.645248 5.686071 -413.171120 7.607069 0.000000 0.000001 0.000000 -2.810503 14.462248 -7.179784 47.411874 -8.571005 -8.232103 -39.091147 -9.445436 16.079782 0.000001 0.000000 -0.000000 -0.000000 -0.000002 -0.000000 -55.935943 -2.077452 -1.716521 32.561527 15.433827 4.684082 -13.970693 2.597379 9.649843 -0.000002 0.000002 0.000000 -0.000002 -0.000003 -0.000003 11.507958 -5.734051 4.504712 6.897511 -6.951603 1.878613 -4.209832 -6.549557 2.113396 6.754092 41.480432 -10.680605 1.712231 25.842649 -7.475038 -0.000001 0.000000 -0.000001 -0.000001 0.000000 -0.000001 -0.000001 0.000000 -0.000001 -0.000001 0.000000 -0.000001 -0.000001 -0.000000 -0.000000 -0.000001 0.000000 -0.000001 -0.000001 -0.000000 -0.000000 -0.000001 0.000000 -0.000001 -0.000001 0.000000 -0.000001 1.270528 -5.316228 -0.766508 -4.829684 -2.597526 -36.315091 -0.000755 -23.380827 -2.655187 -43.580008 -16.603176 22.958390 20.993672 -10.305540 6.186537 3.715749 17.385331 -9.269076 0.000000 -0.000000 0.000000 12.155546 -5.008996 -19.357514 -1.752655 1.408475 -24.867530 0.000002 0.000002 0.000000 2.495523 2.548936 -39.191926 -1.398872 0.248777 -47.542932 -0.000001 0.000001 0.000003 0.950606 6.178111 -48.371738 -2.316267 1.003878 -53.554591 -0.000003 0.000001 0.000000 -1.286426 4.834463 -53.465242 -2.521163 1.318784 -48.312284 0.000000 -0.000001 0.000001 0.000001 -0.000001 0.000003 10.009430 -5.247000 3.894588 5.281025 -0.456755 74.450346 -9.017192 16.459795 6.074804 -27.199908 -7.979314 -16.432190 55.149529 18.649517 -29.698274 -0.442541 -14.180539 7.313162 -0.000000 0.000000 -0.000000 5.673390 7.585010 36.844168 1.050464 3.824543 68.900230 0.000001 0.000001 0.000002 -0.125716 1.886078 45.000783 -1.168995 3.204684 68.417650 -0.000000 -0.000001 0.000001 -5.312007 1.216667 58.508780 -0.745229 1.667564 48.011281 0.000002 -0.000001 -0.000000 -7.756831 -9.376442 47.264004 -0.526020 1.541563 45.600532 -0.000004 0.000001 0.000001 -0.000000 -0.000001 0.000001 -0.000002 0.000002 -0.000001 -0.000001 0.000002 -0.000001 -0.000002 0.000002 0.000000 -0.000002 0.000002 0.000000 -0.000002 0.000002 -0.000001 -0.000001 0.000002 -0.000001 -0.000002 0.000002 0.000000 -0.000002 0.000002 0.000000 -0.000002 0.000002 -0.000001 -0.000001 0.000002 -0.000001 0.000000 0.000001 0.000000 0.000000 0.000001 0.000000 0.000000 0.000001 0.000000 
2.496062 62.230690 18.897884 5.944402 -414.093742 7.877600 -0.000000 -0.000002 0.000000 -2.513131 14.233703 -7.650039 44.901571 -7.851406 -8.238861 -40.344855 -8.452793 14.335363 -0.000000 0.000001 -0.000000 0.000001 0.000004 -0.000001 -55.317227 -1.683006 -2.126048 32.354312 15.125860 4.578731 -10.520178 3.083908 9.933610 0.000000 0.000002 -0.000001 0.000002 -0.000002 -0.000003 11.416339 -5.579202 4.465829 6.702432 -6.646076 1.735209 -4.396960 -6.222360 2.032142 5.775675 41.621131 -10.698907 2.687456 25.531746 -7.780074 0.000001 -0.000000 0.000001 0.000001 -0.000000 0.000001 0.000001 -0.000000 0.000001 0.000001 -0.000000 -0.000000 -0.000000 -0.000000 -0.000000 0.000001 -0.000000 -0.000000 -0.000000 -0.000000 -0.000000 0.000001 -0.000000 0.000001 0.000001 -0.000000 0.000001 1.193830 -5.438133 -0.666397 -7.183526 -1.982271 -36.296158 -0.000743 -25.615153 -2.431707 -40.197197 -19.135397 21.319329 20.991799 -10.305241 6.185333 3.713729 17.384927 -9.267941 -0.000000 0.000001 -0.000000 12.155576 -5.008966 -19.357557 -1.752640 1.408477 -24.867493 0.000002 -0.000001 -0.000000 2.495742 2.548445 -39.191875 -1.399387 0.248727 -47.542925 -0.000000 0.000001 0.000003 0.951315 6.178111 -48.371816 -2.316271 1.003915 -53.554642 -0.000001 0.000003 -0.000000 -1.286383 4.834481 -53.465266 -2.520854 1.318749 -48.312247 -0.000002 0.000001 0.000003 0.000000 -0.000001 0.000003 10.002477 -5.247366 3.791882 5.106701 1.244150 72.693956 -7.342018 18.797423 7.476826 -27.297765 -7.313755 -16.910833 55.149526 18.649516 -29.698274 -0.442538 -14.180539 7.313158 -0.000000 0.000000 0.000002 5.673388 7.585010 36.844171 1.050465 3.824541 68.900230 -0.000001 0.000001 -0.000001 -0.125719 1.886073 45.000783 -1.168996 3.204686 68.417657 -0.000000 0.000002 -0.000002 -5.312007 1.216669 58.508780 -0.745225 1.667565 48.011281 -0.000002 -0.000003 0.000000 -7.756832 -9.376446 47.264001 -0.526026 1.541569 45.600532 0.000002 0.000000 0.000002 -0.000001 -0.000000 0.000000 0.000001 0.000000 -0.000001 0.000001 -0.000001 0.000000 0.000001 0.000000 -0.000000 0.000001 0.000000 -0.000000 0.000001 0.000000 -0.000001 0.000001 -0.000001 0.000000 0.000001 0.000000 -0.000000 0.000001 0.000000 -0.000000 0.000001 0.000000 -0.000001 0.000001 -0.000001 0.000000 -0.000000 -0.000002 0.000000 -0.000000 -0.000002 0.000000 -0.000000 -0.000002 0.000000 
3.196725 62.522072 18.188498 6.222815 -414.680483 8.332996 0.000000 0.000000 -0.000000 -2.466593 13.477746 -8.361679 42.784974 -7.229257 -7.854846 -41.479875 -7.362897 12.284700 -0.000000 -0.000006 0.000000 0.000000 0.000001 -0.000000 -54.896839 -0.552604 -2.271416 32.913295 14.534195 3.367260 -6.825715 3.288089 11.572364 -0.000001 -0.000000 -0.000000 -0.000003 0.000001 -0.000001 11.383474 -5.449709 4.406824 6.628092 -6.390903 1.563474 -4.464395 -5.939068 1.913259 4.365873 41.687452 -10.666467 3.702047 25.152704 -8.050835 -0.000000 -0.000000 0.000001 -0.000000 -0.000000 0.000001 -0.000000 -0.000000 0.000001 -0.000000 -0.000000 0.000000 -0.000000 -0.000000 0.000000 -0.000000 -0.000000 0.000000 -0.000000 -0.000000 0.000000 -0.000000 -0.000000 0.000001 -0.000000 -0.000000 0.000001 1.126229 -5.641830 -0.722996 -9.346830 -1.665583 -36.045302 -0.000780 -28.424319 -2.537057 -36.837293 -19.810991 22.805354 20.990346 -10.305102 6.184465 3.711912 17.384488 -9.266746 0.000001 -0.000002 -0.000000 12.155592 -5.008949 -19.357514 -1.752647 1.408414 -24.867523 -0.000000 0.000000 0.000002 2.495647 2.548060 -39.191854 -1.400276 0.248770 -47.542908 0.000002 -0.000001 -0.000001 0.951994 6.178079 -48.371953 -2.316347 1.003916 -53.554619 -0.000000 -0.000002 -0.000000 -1.286387 4.834447 -53.465286 -2.520809 1.318773 -48.312284 0.000000 -0.000000 0.000003 0.000000 -0.000000 0.000001 10.045357 -5.469090 3.772902 4.495838 3.336454 70.727633 -5.588878 20.794005 8.779319 -27.367701 -6.389272 -16.786226 55.149533 18.649519 -29.698277 -0.442543 -14.180541 7.313158 -0.000003 0.000000 -0.000000 5.673389 7.585010 36.844165 1.050464 3.824544 68.900230 -0.000001 -0.000000 0.000002 -0.125719 1.886073 45.000783 -1.168996 3.204689 68.417650 0.000002 0.000002 -0.000001 -5.312011 1.216665 58.508780 -0.745226 1.667564 48.011285 0.000000 -0.000003 -0.000001 -7.756832 -9.376446 47.264001 -0.526024 1.541566 45.600532 -0.000004 0.000002 -0.000003 -0.000001 -0.000000 -0.000000 0.000000 -0.000001 0.000000 0.000000 0.000001 -0.000000 0.000000 -0.000001 0.000000 0.000000 -0.000001 0.000000 0.000000 -0.000001 0.000000 0.000000 0.000001 -0.000000 0.000000 -0.000001 0.000000 0.000000 -0.000001 0.000000 0.000000 -0.000001 0.000000 0.000000 0.000001 -0.000000 0.000000 0.000000 -0.000000 0.000000 0.000000 -0.000000 0.000000 0.000000 -0.000000 
